<svg xmlns="http://www.w3.org/2000/svg" width="108" height="108" viewBox="0 0 108 108">
  <!-- Background Grid -->
  <rect width="108" height="108" fill="#080a0e" />

  <!-- Vertical lines -->
  <line x1="9" y1="0" x2="9" y2="108" stroke="rgba(255,255,255,0.2)" stroke-width="0.8" />
  <line x1="19" y1="0" x2="19" y2="108" stroke="rgba(255,255,255,0.2)" stroke-width="0.8" />
  <line x1="29" y1="0" x2="29" y2="108" stroke="rgba(255,255,255,0.2)" stroke-width="0.8" />
  <line x1="39" y1="0" x2="39" y2="108" stroke="rgba(255,255,255,0.2)" stroke-width="0.8" />
  <line x1="49" y1="0" x2="49" y2="108" stroke="rgba(255,255,255,0.2)" stroke-width="0.8" />
  <line x1="59" y1="0" x2="59" y2="108" stroke="rgba(255,255,255,0.2)" stroke-width="0.8" />
  <line x1="69" y1="0" x2="69" y2="108" stroke="rgba(255,255,255,0.2)" stroke-width="0.8" />
  <line x1="79" y1="0" x2="79" y2="108" stroke="rgba(255,255,255,0.2)" stroke-width="0.8" />
  <line x1="89" y1="0" x2="89" y2="108" stroke="rgba(255,255,255,0.2)" stroke-width="0.8" />
  <line x1="99" y1="0" x2="99" y2="108" stroke="rgba(255,255,255,0.2)" stroke-width="0.8" />

  <!-- Horizontal lines -->
  <line x1="0" y1="9" x2="108" y2="9" stroke="rgba(255,255,255,0.2)" stroke-width="0.8" />
  <line x1="0" y1="19" x2="108" y2="19" stroke="rgba(255,255,255,0.2)" stroke-width="0.8" />
  <line x1="0" y1="29" x2="108" y2="29" stroke="rgba(255,255,255,0.2)" stroke-width="0.8" />
  <line x1="0" y1="39" x2="108" y2="39" stroke="rgba(255,255,255,0.2)" stroke-width="0.8" />
  <line x1="0" y1="49" x2="108" y2="49" stroke="rgba(255,255,255,0.2)" stroke-width="0.8" />
  <line x1="0" y1="59" x2="108" y2="59" stroke="rgba(255,255,255,0.2)" stroke-width="0.8" />
  <line x1="0" y1="69" x2="108" y2="69" stroke="rgba(255,255,255,0.2)" stroke-width="0.8" />
  <line x1="0" y1="79" x2="108" y2="79" stroke="rgba(255,255,255,0.2)" stroke-width="0.8" />
  <line x1="0" y1="89" x2="108" y2="89" stroke="rgba(255,255,255,0.2)" stroke-width="0.8" />
  <line x1="0" y1="99" x2="108" y2="99" stroke="rgba(255,255,255,0.2)" stroke-width="0.8" />

  <!-- Inner horizontal lines -->
  <line x1="19" y1="29" x2="89" y2="29" stroke="rgba(255,255,255,0.2)" stroke-width="0.8" />
  <line x1="19" y1="39" x2="89" y2="39" stroke="rgba(255,255,255,0.2)" stroke-width="0.8" />
  <line x1="19" y1="49" x2="89" y2="49" stroke="rgba(255,255,255,0.2)" stroke-width="0.8" />
  <line x1="19" y1="59" x2="89" y2="59" stroke="rgba(255,255,255,0.2)" stroke-width="0.8" />
  <line x1="19" y1="69" x2="89" y2="69" stroke="rgba(255,255,255,0.2)" stroke-width="0.8" />
  <line x1="19" y1="79" x2="89" y2="79" stroke="rgba(255,255,255,0.2)" stroke-width="0.8" />

  <!-- Inner vertical lines -->
  <line x1="29" y1="19" x2="29" y2="89" stroke="rgba(255,255,255,0.2)" stroke-width="0.8" />
  <line x1="39" y1="19" x2="39" y2="89" stroke="rgba(255,255,255,0.2)" stroke-width="0.8" />
  <line x1="49" y1="19" x2="49" y2="89" stroke="rgba(255,255,255,0.2)" stroke-width="0.8" />
  <line x1="59" y1="19" x2="59" y2="89" stroke="rgba(255,255,255,0.2)" stroke-width="0.8" />
  <line x1="69" y1="19" x2="69" y2="89" stroke="rgba(255,255,255,0.2)" stroke-width="0.8" />
  <line x1="79" y1="19" x2="79" y2="89" stroke="rgba(255,255,255,0.2)" stroke-width="0.8" />

  <!-- Overlayed Icon -->
  <defs>
    <linearGradient id="grad1" x1="42.9492" y1="49.59793" x2="85.84757" y2="92.4963" gradientUnits="userSpaceOnUse">
      <stop offset="0.0" stop-color="#44000000" />
      <stop offset="1.0" stop-color="#00000000" />
    </linearGradient>
  </defs>

  <path d="M31,63.928c0,0 6.4,-11 12.1,-13.1c7.2,-2.6 26,-1.4 26,-1.4l38.1,38.1L107,108.928l-32,-1L31,63.928z"
        fill="url(#grad1)" />

  <path d="M65.3,45.828l3.8,-6.6c0.2,-0.4 0.1,-0.9 -0.3,-1.1c-0.4,-0.2 -0.9,-0.1 -1.1,0.3l-3.9,6.7
           c-6.3,-2.8 -13.4,-2.8 -19.7,0l-3.9,-6.7c-0.2,-0.4 -0.7,-0.5 -1.1,-0.3C38.8,38.328 38.7,38.828 38.9,39.228l3.8,6.6
           C36.2,49.428 31.7,56.028 31,63.928h46C76.3,56.028 71.8,49.428 65.3,45.828z
           M43.4,57.328c-0.8,0 -1.5,-0.5 -1.8,-1.2c-0.3,-0.7 -0.1,-1.5 0.4,-2.1c0.5,-0.5 1.4,-0.7 2.1,-0.4
           c0.7,0.3 1.2,1 1.2,1.8C45.3,56.528 44.5,57.328 43.4,57.328L43.4,57.328z
           M64.6,57.328c-0.8,0 -1.5,-0.5 -1.8,-1.2s-0.1,-1.5 0.4,-2.1c0.5,-0.5 1.4,-0.7 2.1,-0.4
           c0.7,0.3 1.2,1 1.2,1.8C66.5,56.528 65.6,57.328 64.6,57.328L64.6,57.328z"
        fill="#FFFFFF"
        stroke="none"
        stroke-width="1"/>
</svg>
